<svg width="24" height="24" viewBox="0 0 24 24" fill="none" xmlns="http://www.w3.org/2000/svg">
<path d="M6 18H7V20H6V21H4V20H3V18H4V17H6V18Z" fill="black"/>
<path d="M4 6H3V4H4V3H6V4H7V6H6V7H4V6Z" fill="black"/>
<path d="M2 14V13H1V11H2V10H4V11H5V13H4V14H2Z" fill="black"/>
<path d="M13 20H14V22H13V23H11V22H10V20H11V19H13V20Z" fill="black"/>
<path d="M11 4H10V2H11V1H13V2H14V4H13V5H11V4Z" fill="black"/>
<path d="M18 6H17V4H18V3H20V4H21V6H20V7H18V6Z" fill="black"/>
<path d="M17 14H16V16H14V17H10V16H8V14H7V10H8V8H10V7H14V8H16V10H17V14Z" fill="black"/>
<path d="M20 18H21V20H20V21H18V20H17V18H18V17H20V18Z" fill="black"/>
<path d="M23 11V13H22V14H20V13H19V11H20V10H22V11H23Z" fill="black"/>
</svg>
