<svg width="24" height="24" viewBox="0 0 24 24" fill="none" xmlns="http://www.w3.org/2000/svg">
<path d="M10 1H9V2H10V1Z" fill="black"/>
<path d="M9 2V3H8V5H7V8H2V7H3V5H4V4H5V3H7V2H9Z" fill="black"/>
<path d="M13 2H14V4H15V6H16V8H8V6H9V4H10V2H11V1H13V2Z" fill="black"/>
<path d="M15 1H14V2H15V1Z" fill="black"/>
<path d="M22 7V8H17V5H16V3H15V2H17V3H19V4H20V5H21V7H22Z" fill="black"/>
<path d="M17 10V14H16V15H8V14H7V10H8V9H16V10H17Z" fill="black"/>
<path d="M1 9H7V10H6V14H7V15H1V9Z" fill="black"/>
<path d="M23 9V15H17V14H18V10H17V9H23Z" fill="black"/>
<path d="M22 16V17H21V19H20V20H19V21H17V22H15V21H16V19H17V16H22Z" fill="black"/>
<path d="M10 22H9V23H10V22Z" fill="black"/>
<path d="M9 21V22H7V21H5V20H4V19H3V17H2V16H7V19H8V21H9Z" fill="black"/>
<path d="M15 22H14V23H15V22Z" fill="black"/>
<path d="M14 22H13V23H11V22H10V20H9V18H8V16H16V18H15V20H14V22Z" fill="black"/>
</svg>
