<svg width="24" height="24" viewBox="0 0 24 24" fill="none" xmlns="http://www.w3.org/2000/svg">
<path d="M2 7H1V5H2V4H3V3H4V2H5V1H7V2H8V4H7V5H6V6H7V7H8V6H9V5H11V6H10V7H9V8H8V9H7V10H6V11H5V10H4V9H3V8H2V7Z" fill="black"/>
<path d="M13 17H12V18H11V19H10V20H9V21H8V22H7V23H1V17H2V16H3V15H4V14H5V13H6V12H7V11H8V10H9V9H10V8H11V7H12V6H14V7H15V8H16V9H17V10H18V12H17V13H16V14H15V15H14V16H13V17Z" fill="black"/>
<path d="M23 4V7H22V8H21V9H19V8H18V7H17V6H16V5H15V3H16V2H17V1H20V2H21V3H22V4H23Z" fill="black"/>
<path d="M22 17H23V19H22V20H21V21H20V22H19V23H17V22H16V21H15V20H14V19H13V18H14V17H15V16H16V15H17V14H18V13H19V15H18V16H17V17H18V18H19V17H20V16H22V17Z" fill="black"/>
</svg>
