<svg width="24" height="24" viewBox="0 0 24 24" fill="none" xmlns="http://www.w3.org/2000/svg">
<path d="M3 17H4V18H3V20H1V17H2V16H3V17Z" fill="black"/>
<path d="M4 5H3V3H4V2H6V3H7V5H6V6H4V5Z" fill="black"/>
<path d="M23 17V20H21V18H20V17H21V16H22V17H23Z" fill="black"/>
<path d="M20 16H19V20H18V21H17V20H16V17H17V14H18V12H17V13H16V14H8V13H7V12H6V14H7V17H8V20H7V21H6V20H5V16H4V15H3V14H2V11H3V8H4V7H6V8H7V10H8V11H9V7H15V11H16V10H17V8H18V7H20V8H21V11H22V14H21V15H20V16Z" fill="black"/>
<path d="M18 5H17V3H18V2H20V3H21V5H20V6H18V5Z" fill="black"/>
</svg>
