<svg width="24" height="24" viewBox="0 0 24 24" fill="none" xmlns="http://www.w3.org/2000/svg">
<path d="M12 7V5H15V6H16V7H17V8H18V9H19V12H17V10H16V9H15V8H14V7H12Z" fill="black"/>
<path d="M14 10H12V12H14V10Z" fill="black"/>
<path d="M23 8V12H21V8H20V7H19V6H18V5H17V4H16V3H12V1H16V2H18V3H19V4H20V5H21V6H22V8H23Z" fill="black"/>
<path d="M22 17H23V20H22V22H21V23H16V22H12V21H10V20H9V19H8V18H7V17H6V16H5V15H4V14H3V12H2V8H1V3H2V2H4V1H7V2H8V3H9V5H10V8H9V9H8V12H9V13H10V14H11V15H12V16H15V15H16V14H19V15H21V16H22V17Z" fill="black"/>
</svg>
