<svg width="24" height="24" viewBox="0 0 24 24" fill="none" xmlns="http://www.w3.org/2000/svg">
<path d="M7 5H8V7H7V8H5V7H4V5H5V4H7V5Z" fill="black"/>
<path d="M13 2H14V4H13V5H11V4H10V2H11V1H13V2Z" fill="black"/>
<path d="M4 14H2V13H1V11H2V10H4V11H5V13H4V14Z" fill="black"/>
<path d="M7 17H8V19H7V20H5V19H4V17H5V16H7V17Z" fill="black"/>
<path d="M23 11V13H22V14H20V13H19V11H20V10H22V11H23Z" fill="black"/>
<path d="M19 17H20V19H19V20H17V19H16V17H17V16H19V17Z" fill="black"/>
<path d="M13 20H14V22H13V23H11V22H10V20H11V19H13V20Z" fill="black"/>
</svg>
